<?xml version="1.0" encoding="UTF-8"?>
<!DOCTYPE svg PUBLIC "-//W3C//DTD SVG 1.1//EN" "http://www.w3.org/Graphics/SVG/1.1/DTD/svg11.dtd">
<!-- Creator: CorelDRAW 2019 (64-Bit) -->
<svg xmlns="http://www.w3.org/2000/svg" xml:space="preserve" width="26.7925mm" height="3.096mm" version="1.1" style="shape-rendering:geometricPrecision; text-rendering:geometricPrecision; image-rendering:optimizeQuality; fill-rule:evenodd; clip-rule:evenodd"
viewBox="0 0 596.86 68.97"
 xmlns:xlink="http://www.w3.org/1999/xlink"
 xmlns:xodm="http://www.corel.com/coreldraw/odm/2003">
 <defs>
  <style type="text/css">
   <![CDATA[
    .fil0 {fill:#707070;fill-rule:nonzero}
    .fil1 {fill:#707070;fill-rule:nonzero}
   ]]>
  </style>
 </defs>
 <g id="Layer_x0020_1">
  <metadata id="CorelCorpID_0Corel-Layer"/>
  <path class="fil0" d="M54.27 48.72c0,1.94 -0.47,4.04 -1.43,6.29 -0.95,2.25 -2.45,4.47 -4.51,6.63 -2.04,2.18 -4.66,3.94 -7.84,5.3 -3.19,1.35 -6.9,2.03 -11.14,2.03 -3.2,0 -6.12,-0.3 -8.76,-0.91 -2.62,-0.61 -5.02,-1.56 -7.16,-2.85 -2.14,-1.27 -4.13,-2.98 -5.93,-5.07 -1.6,-1.91 -2.98,-4.04 -4.11,-6.41 -1.13,-2.37 -1.98,-4.9 -2.55,-7.58 -0.57,-2.69 -0.85,-5.54 -0.85,-8.56 0,-4.89 0.71,-9.29 2.14,-13.15 1.42,-3.89 3.47,-7.2 6.12,-9.95 2.66,-2.75 5.77,-4.85 9.34,-6.29 3.57,-1.43 7.38,-2.15 11.42,-2.15 4.93,0 9.31,0.98 13.17,2.95 3.84,1.96 6.79,4.39 8.84,7.28 2.04,2.89 3.08,5.61 3.08,8.19 0,1.42 -0.51,2.65 -1.5,3.74 -0.99,1.08 -2.2,1.62 -3.61,1.62 -1.57,0 -2.76,-0.38 -3.54,-1.12 -0.8,-0.75 -1.67,-2.04 -2.64,-3.87 -1.62,-3.02 -3.5,-5.27 -5.67,-6.77 -2.18,-1.49 -4.85,-2.24 -8.04,-2.24 -5.07,0 -9.1,1.93 -12.1,5.77 -3.01,3.85 -4.51,9.33 -4.51,16.41 0,4.73 0.67,8.67 2,11.82 1.32,3.15 3.2,5.48 5.64,7.04 2.44,1.54 5.29,2.32 8.56,2.32 3.54,0 6.53,-0.88 8.98,-2.64 2.45,-1.76 4.3,-4.34 5.54,-7.75 0.52,-1.6 1.18,-2.9 1.96,-3.93 0.76,-1.01 2.01,-1.52 3.73,-1.52 1.47,0 2.74,0.51 3.78,1.54 1.05,1.02 1.57,2.3 1.57,3.81z"/>
  <path id="1" class="fil0" d="M64.56 62.08l0 -49.15c0,-2.27 0.51,-3.98 1.52,-5.15 1,-1.16 2.37,-1.74 4.08,-1.74 1.7,0 3.09,0.58 4.14,1.73 1.05,1.15 1.57,2.86 1.57,5.16l0 49.15c0,2.3 -0.54,4.01 -1.6,5.16 -1.06,1.15 -2.44,1.73 -4.11,1.73 -1.66,0 -3.01,-0.59 -4.04,-1.79 -1.04,-1.19 -1.56,-2.89 -1.56,-5.1z"/>
  <path id="2" class="fil0" d="M98.91 29.31l0 32.77c0,2.27 -0.54,3.98 -1.62,5.15 -1.08,1.16 -2.44,1.74 -4.09,1.74 -1.66,0 -3.01,-0.59 -4.04,-1.79 -1.04,-1.19 -1.56,-2.89 -1.56,-5.1l0 -32.43c0,-2.25 0.52,-3.94 1.56,-5.07 1.03,-1.13 2.38,-1.7 4.04,-1.7 1.66,0 3.02,0.57 4.09,1.7 1.08,1.13 1.62,2.72 1.62,4.73zm-5.6 -11.71c-1.57,0 -2.92,-0.48 -4.04,-1.45 -1.12,-0.96 -1.67,-2.34 -1.67,-4.11 0,-1.59 0.57,-2.9 1.72,-3.94 1.15,-1.04 2.48,-1.56 4,-1.56 1.47,0 2.76,0.47 3.9,1.4 1.13,0.95 1.7,2.31 1.7,4.09 0,1.74 -0.55,3.11 -1.66,4.08 -1.1,0.98 -2.41,1.47 -3.94,1.47z"/>
  <path id="3" class="fil0" d="M151.31 54.95c0,1.4 -0.42,2.92 -1.27,4.52 -0.84,1.6 -2.13,3.13 -3.86,4.58 -1.73,1.45 -3.91,2.62 -6.55,3.5 -2.62,0.89 -5.58,1.33 -8.89,1.33 -7,0 -12.47,-2.04 -16.4,-6.12 -3.94,-4.08 -5.91,-9.55 -5.91,-16.43 0,-4.65 0.91,-8.76 2.71,-12.33 1.8,-3.57 4.41,-6.34 7.81,-8.28 3.42,-1.96 7.48,-2.93 12.22,-2.93 2.93,0 5.63,0.43 8.08,1.29 2.44,0.86 4.52,1.97 6.22,3.33 1.7,1.36 3.01,2.8 3.9,4.34 0.91,1.55 1.36,2.98 1.36,4.31 0,1.36 -0.51,2.51 -1.52,3.46 -1.02,0.94 -2.24,1.4 -3.68,1.4 -0.94,0 -1.72,-0.24 -2.34,-0.72 -0.62,-0.48 -1.32,-1.26 -2.1,-2.34 -1.39,-2.1 -2.83,-3.68 -4.34,-4.73 -1.52,-1.05 -3.43,-1.57 -5.75,-1.57 -3.35,0 -6.05,1.31 -8.09,3.93 -2.05,2.61 -3.08,6.18 -3.08,10.71 0,2.13 0.27,4.08 0.8,5.87 0.52,1.79 1.27,3.32 2.28,4.56 0.99,1.26 2.2,2.21 3.61,2.86 1.4,0.65 2.96,0.98 4.65,0.98 2.27,0 4.21,-0.53 5.83,-1.57 1.63,-1.05 3.06,-2.66 4.31,-4.82 0.68,-1.28 1.43,-2.27 2.24,-2.98 0.79,-0.72 1.79,-1.09 2.95,-1.09 1.39,0 2.54,0.54 3.44,1.59 0.91,1.05 1.37,2.17 1.37,3.36z"/>
  <path id="4" class="fil0" d="M186.16 63.78l-10.01 -16.41 -6.15 5.8 0 9c0,2.18 -0.58,3.87 -1.73,5.05 -1.15,1.18 -2.47,1.76 -3.97,1.76 -1.74,0 -3.12,-0.58 -4.11,-1.74 -1.01,-1.16 -1.5,-2.88 -1.5,-5.15l0 -48.31c0,-2.52 0.48,-4.44 1.46,-5.75 0.96,-1.32 2.35,-1.97 4.15,-1.97 1.74,0 3.13,0.59 4.15,1.78 1.03,1.19 1.54,2.95 1.54,5.27l0 27.47 12.74 -13.37c1.59,-1.67 2.79,-2.8 3.61,-3.42 0.84,-0.61 1.84,-0.91 3.03,-0.91 1.42,0 2.59,0.45 3.53,1.35 0.95,0.91 1.42,2.03 1.42,3.39 0,1.66 -1.55,3.87 -4.61,6.65l-6.02 5.51 11.62 18.27c0.86,1.36 1.47,2.39 1.84,3.1 0.38,0.71 0.57,1.37 0.57,2.01 0,1.8 -0.5,3.22 -1.47,4.25 -0.98,1.04 -2.28,1.56 -3.88,1.56 -1.39,0 -2.45,-0.37 -3.19,-1.12 -0.75,-0.75 -1.76,-2.1 -3.03,-4.07z"/>
  <path id="5" class="fil0" d="M249.26 58.77l-9.77 -38.78 0 42.01c0,2.32 -0.52,4.07 -1.56,5.23 -1.03,1.16 -2.41,1.74 -4.11,1.74 -1.66,0 -3.02,-0.58 -4.07,-1.73 -1.05,-1.15 -1.57,-2.89 -1.57,-5.24l0 -48.16c0,-2.66 0.7,-4.45 2.07,-5.39 1.39,-0.92 3.26,-1.39 5.6,-1.39l3.83 0c2.3,0 3.95,0.21 4.99,0.62 1.04,0.41 1.82,1.16 2.31,2.24 0.5,1.08 1.06,2.83 1.7,5.27l8.84 33.36 8.84 -33.36c0.64,-2.44 1.2,-4.2 1.7,-5.27 0.5,-1.08 1.26,-1.83 2.3,-2.24 1.03,-0.41 2.71,-0.62 5,-0.62l3.81 0c2.35,0 4.22,0.47 5.61,1.39 1.37,0.94 2.07,2.72 2.07,5.39l0 48.16c0,2.32 -0.52,4.07 -1.56,5.23 -1.03,1.16 -2.42,1.74 -4.15,1.74 -1.63,0 -2.98,-0.58 -4.03,-1.74 -1.05,-1.16 -1.57,-2.91 -1.57,-5.23l0 -42.01 -9.76 38.78c-0.64,2.51 -1.15,4.37 -1.56,5.54 -0.4,1.16 -1.13,2.24 -2.21,3.2 -1.09,0.98 -2.58,1.46 -4.49,1.46 -1.45,0 -2.66,-0.31 -3.66,-0.94 -0.99,-0.62 -1.77,-1.42 -2.32,-2.38 -0.55,-0.98 -0.99,-2.04 -1.3,-3.22 -0.33,-1.18 -0.65,-2.41 -0.98,-3.67z"/>
  <path id="6" class="fil0" d="M330.38 48.73l-22.18 0c0.03,2.58 0.55,4.85 1.56,6.82 1,1.97 2.35,3.44 4.03,4.44 1.67,1 3.53,1.5 5.54,1.5 1.36,0 2.59,-0.16 3.71,-0.48 1.13,-0.31 2.21,-0.81 3.26,-1.49 1.06,-0.68 2.03,-1.4 2.9,-2.18 0.89,-0.78 2.04,-1.83 3.46,-3.16 0.58,-0.5 1.4,-0.75 2.48,-0.75 1.16,0 2.11,0.33 2.84,0.96 0.71,0.62 1.08,1.53 1.08,2.69 0,1.02 -0.41,2.21 -1.21,3.59 -0.81,1.36 -2.01,2.68 -3.64,3.93 -1.62,1.26 -3.64,2.31 -6.09,3.13 -2.45,0.84 -5.27,1.25 -8.45,1.25 -7.28,0 -12.94,-2.08 -16.98,-6.24 -4.04,-4.15 -6.05,-9.78 -6.05,-16.9 0,-3.34 0.49,-6.46 1.49,-9.33 0.99,-2.86 2.45,-5.32 4.35,-7.37 1.91,-2.04 4.27,-3.61 7.06,-4.7 2.79,-1.09 5.9,-1.64 9.3,-1.64 4.44,0 8.24,0.94 11.4,2.8 3.17,1.87 5.54,4.28 7.13,7.26 1.57,2.96 2.37,5.98 2.37,9.06 0,2.85 -0.82,4.7 -2.45,5.56 -1.63,0.84 -3.93,1.26 -6.89,1.26zm-22.18 -6.46l20.55 0c-0.27,-3.87 -1.32,-6.76 -3.13,-8.69 -1.81,-1.91 -4.19,-2.88 -7.16,-2.88 -2.83,0 -5.14,0.98 -6.96,2.92 -1.81,1.96 -2.92,4.83 -3.3,8.65z"/>
  <g>
   <path class="fil1" d="M473.54 43.88l5.93 9.43 0 0 -2.6 1.47 -2.77 1.27 -2.92 1.08 -3.06 0.92 -3.19 0.76 -3.3 0.61 -3.41 0.47 -3.5 0.34 -3.59 0.21 -3.66 0.09 -3.73 -0.02 -3.78 -0.13 -3.81 -0.24 -3.84 -0.35 -3.86 -0.45 -3.85 -0.54 -3.84 -0.64 -3.82 -0.73 -3.78 -0.82 -3.72 -0.9 -3.66 -0.98 -3.58 -1.06 -3.5 -1.15 -3.39 -1.22 -3.28 -1.29 -3.16 -1.37 -3.02 -1.44 -2.87 -1.52 -2.7 -1.59 -2.54 -1.68 -2.35 -1.77 -2.16 -1.86 7.6 -8.14 1.53 1.32 1.78 1.34 2.02 1.33 2.24 1.32 2.44 1.29 2.63 1.26 2.8 1.21 2.95 1.16 3.08 1.11 3.2 1.05 3.3 0.98 3.39 0.91 3.46 0.84 3.51 0.76 3.55 0.68 3.57 0.59 3.58 0.51 3.58 0.41 3.55 0.32 3.52 0.22 3.46 0.12 3.39 0.02 3.3 -0.08 3.19 -0.19 3.07 -0.3 2.94 -0.41 2.78 -0.51 2.6 -0.62 2.41 -0.72 2.19 -0.82 1.96 -0.9 1.73 -0.98 0 0zm64.08 -15.77l-3.64 10.52 -2.11 -0.68 -2.04 -0.58 -1.97 -0.47 -1.91 -0.37 -1.85 -0.28 -1.8 -0.19 -1.75 -0.1 -1.7 -0.02 -1.67 0.06 -1.64 0.13 -1.62 0.2 -1.59 0.27 -1.58 0.34 -1.57 0.4 -1.55 0.47 -1.56 0.53 -1.55 0.59 -1.56 0.65 -1.57 0.71 -1.57 0.76 -1.58 0.81 -1.6 0.86 -1.61 0.91 -1.63 0.95 -1.65 0.99 -1.67 1.02 -1.69 1.06 -1.72 1.09 -1.75 1.11 -1.78 1.14 -1.81 1.15 -1.85 1.17 -5.93 -9.43 1.81 -1.15 1.8 -1.14 1.78 -1.13 1.77 -1.13 1.76 -1.11 1.76 -1.1 1.76 -1.08 1.76 -1.06 1.76 -1.02 1.78 -1 1.78 -0.96 1.8 -0.92 1.82 -0.88 1.84 -0.83 1.87 -0.78 1.9 -0.72 1.93 -0.66 1.96 -0.59 2 -0.51 2.03 -0.44 2.07 -0.35 2.11 -0.27 2.14 -0.17 2.19 -0.08 2.23 0.03 2.26 0.13 2.3 0.24 2.34 0.35 2.38 0.46 2.42 0.58 2.46 0.7 2.51 0.82zm59.24 26.4l-75.58 9.92 22.3 -64.43 53.28 54.51z"/>
  </g>
 </g>
</svg>
