<svg xmlns="http://www.w3.org/2000/svg" xmlns:xlink="http://www.w3.org/1999/xlink" width="241.663" height="71" viewBox="0 0 241.663 71"><defs><filter id="a" x="0" y="0" width="241.663" height="71" filterUnits="userSpaceOnUse"><feOffset dy="4" input="SourceAlpha"/><feGaussianBlur stdDeviation="1.5" result="b"/><feFlood flood-opacity="0.161"/><feComposite operator="in" in2="b"/><feComposite in="SourceGraphic"/></filter></defs><g transform="matrix(1, 0, 0, 1, 0, 0)" filter="url(#a)"><path d="M6,73a6,6,0,0,1-6-6V57.143a4.173,4.173,0,0,1-.807-.889l-8.163-12a4,4,0,0,1,0-4.5l8.163-12A4.174,4.174,0,0,1,0,26.858V17a6,6,0,0,1,6-6H217a6,6,0,0,1,6,6V67a6,6,0,0,1-6,6Z" transform="translate(14.16 -10.5)" fill="#4285f4" opacity="0.8"/></g></svg>