<svg xmlns="http://www.w3.org/2000/svg" xmlns:xlink="http://www.w3.org/1999/xlink" width="232" height="81.163" viewBox="0 0 232 81.163"><defs><filter id="a" x="0" y="0" width="232" height="81.163" filterUnits="userSpaceOnUse"><feOffset dy="4" input="SourceAlpha"/><feGaussianBlur stdDeviation="1.5" result="b"/><feFlood flood-opacity="0.161"/><feComposite operator="in" in2="b"/><feComposite in="SourceGraphic"/></filter></defs><g transform="matrix(1, 0, 0, 1, 0, 0)" filter="url(#a)"><path d="M6,73a6,6,0,0,1-6-6V17a6,6,0,0,1,6-6H96.51a4.041,4.041,0,0,1,1.236-1.308l12-8.163a4,4,0,0,1,4.5,0l12,8.163A4.041,4.041,0,0,1,127.49,11H217a6,6,0,0,1,6,6V67a6,6,0,0,1-6,6Z" transform="translate(4.5 -0.34)" fill="#4285f4" opacity="0.8"/></g></svg>